HIERARCHY
ROOT Hips
{
	OFFSET 0.000000 88.474243 0.000000
	CHANNELS 6 Xposition Yposition Zposition Zrotation Yrotation Xrotation 
	JOINT Hips_Spine
	{
		OFFSET 0.000000 0.000000 0.000000
		CHANNELS 3 Zrotation Yrotation Xrotation
		JOINT Spine
		{
			OFFSET 0.005100 8.711998 -0.691000
			CHANNELS 3 Zrotation Yrotation Xrotation
			JOINT Spine1
			{
				OFFSET -0.009200 8.660301 -1.275000
				CHANNELS 3 Zrotation Yrotation Xrotation
				JOINT Spine2
				{
					OFFSET 0.006300 9.852501 -1.857000
					CHANNELS 3 Zrotation Yrotation Xrotation
					JOINT Spine2_Neck
					{
						OFFSET 0.000000 0.000000 0.000000
						CHANNELS 3 Zrotation Yrotation Xrotation
						JOINT Neck
						{
							OFFSET 0.016300 11.420799 -0.263300
							CHANNELS 3 Zrotation Yrotation Xrotation
							End Site #name: Head
							{
								OFFSET -0.019200 9.262405 2.362500
							}
						}
					}
					JOINT Spine2_LeftShoulder
					{
						OFFSET 0.000000 0.000000 0.000000
						CHANNELS 3 Zrotation Yrotation Xrotation
						JOINT LeftShoulder
						{
							OFFSET 5.616900 6.732201 -0.345700
							CHANNELS 3 Zrotation Yrotation Xrotation
							JOINT LeftArm
							{
								OFFSET 10.664888 -0.183372 -2.440700
								CHANNELS 3 Zrotation Yrotation Xrotation
								JOINT LeftForeArm
								{
									OFFSET 27.459126 0.000000 0.000000
									CHANNELS 3 Zrotation Yrotation Xrotation
									End Site #name: LeftHand
									{
										OFFSET 21.306858 0.000000 0.000000
									}
								}
							}
						}
					}
					JOINT Spine2_RightShoulder
					{
						OFFSET 0.000000 0.000000 0.000000
						CHANNELS 3 Zrotation Yrotation Xrotation
						JOINT RightShoulder
						{
							OFFSET -5.580300 6.737503 -0.344400
							CHANNELS 3 Zrotation Yrotation Xrotation
							JOINT RightArm
							{
								OFFSET -10.679335 -0.188484 -2.383900
								CHANNELS 3 Zrotation Yrotation Xrotation
								JOINT RightForeArm
								{
									OFFSET -27.503529 0.000000 0.000000
									CHANNELS 3 Zrotation Yrotation Xrotation
									End Site #name: RightHand
									{
										OFFSET -21.306808 0.000000 0.000000
									}
								}
							}
						}
					}
				}
			}
		}
	}
	JOINT Hips_LeftUpLeg
	{
		OFFSET 0.000000 0.000000 0.000000
		CHANNELS 3 Zrotation Yrotation Xrotation
		JOINT LeftUpLeg
		{
			OFFSET 6.857700 -6.739601 0.312100
			CHANNELS 3 Zrotation Yrotation Xrotation
			JOINT LeftLeg
			{
				OFFSET -0.367590 -34.731552 -4.572400
				CHANNELS 3 Zrotation Yrotation Xrotation
				End Site #name: LeftFoot
				{
					OFFSET 0.367590 -34.656704 -6.067400
				}
			}
		}
	}
	JOINT Hips_RightUpLeg
	{
		OFFSET 0.000000 0.000000 0.000000
		CHANNELS 3 Zrotation Yrotation Xrotation
		JOINT RightUpLeg
		{
			OFFSET -6.876100 -6.733299 0.301000
			CHANNELS 3 Zrotation Yrotation Xrotation
			JOINT RightLeg
			{
				OFFSET 0.347353 -34.795158 -4.515900
				CHANNELS 3 Zrotation Yrotation Xrotation
				End Site #name: RightFoot
				{
					OFFSET -0.347353 -34.589367 -6.070300
				}
			}
		}
	}
}
MOTION
Frames: 10
Frame Time: 0.041667
0.116064 0.074461 0.031643 -175.391197 -61.604893 169.370082 0.000000 0.000000 0.000000 -1.496811 -8.510671 13.437675 4.849723 -2.626630 -1.025116 0.000000 0.000000 0.000000 4.320788 -2.117365 0.852282 -1.740146 -6.069506 -0.499416 3.976511 -2.384982 0.143087 0.213129 -5.427997 0.806609 -56.734198 -40.622705 47.171120 0.186635 -57.380463 -0.164027 4.252358 -2.627352 0.195047 12.613177 2.037450 0.849148 21.125567 -6.095068 2.955962 -0.205336 28.515594 0.294067 0.000000 -0.000000 0.000000 10.237711 17.017370 -19.866355 -6.382976 4.442349 50.710048 0.000000 -0.000000 -0.000000 -3.227897 -15.294711 -16.459665 -7.299489 -4.951427 36.012075 
-0.060671 -0.281762 -0.471018 -171.164797 -74.530609 164.272099 -0.000000 0.000000 0.000000 -6.291956 -10.302045 15.098319 5.244698 -2.388792 -0.454222 0.000000 0.000000 0.000000 5.235865 -1.866355 0.403139 -1.308275 -8.104545 0.336883 5.356144 -2.255203 1.290379 1.268080 -4.658489 0.948219 -54.595481 -42.629010 40.427307 -0.176908 -50.571708 0.412048 5.143562 -2.212801 0.865600 13.175917 -2.282842 -0.026650 20.968196 -3.738533 -4.777687 0.013869 24.423897 0.106945 0.000000 -0.000000 -0.000000 9.175365 18.246994 -24.167283 -2.989487 5.776648 58.779024 0.000000 -0.000000 -0.000000 -7.104140 -16.751355 -15.375932 -6.992340 -6.218934 38.207357 
-0.135272 -0.502620 -1.166688 -169.673857 -82.145957 162.797903 -0.000000 -0.000000 0.000000 -11.001156 -13.560706 15.225945 6.134766 -2.634173 -0.000826 0.000000 0.000000 0.000000 6.287922 -2.782663 1.052254 -1.223856 -9.073345 -1.752272 6.248772 -2.482661 1.852991 1.737459 -6.900271 1.043767 -55.100778 -42.649672 37.013609 -0.268394 -37.687019 0.187094 6.073000 -2.719154 1.566557 12.722979 -6.019633 -1.171248 25.276764 -2.913292 -10.621941 -0.216398 24.034541 -0.061597 -0.000000 -0.000000 -0.000000 5.692368 14.992243 -24.205162 -2.714833 6.029082 54.009384 0.000000 -0.000000 -0.000000 -11.332351 -10.784431 -16.301399 -6.642213 -7.581920 39.656852 
-0.109326 -0.317316 -1.915677 -179.570879 -84.278799 173.313225 -0.000000 -0.000000 -0.000000 -13.963861 -15.028881 16.927923 6.748691 -3.028220 0.850553 0.000000 0.000000 0.000000 6.900463 -3.339298 1.552714 0.597154 -9.666391 -1.371363 7.115071 -3.090757 1.994626 1.554782 -7.683360 1.060180 -55.568652 -43.202429 33.211162 -0.287831 -23.642838 0.201191 6.813186 -3.404960 1.824645 11.002492 -8.750672 -1.614009 23.250445 -3.664682 -17.805897 -0.299312 17.154643 -0.154618 -0.000000 -0.000000 -0.000000 2.782319 12.875186 -21.685386 -3.000325 7.824189 41.430221 0.000000 -0.000000 -0.000000 -15.839495 -5.328626 -19.564039 -7.244349 -8.052252 42.616842 
-0.013692 -0.024779 -2.779352 169.744896 -81.748267 -175.204047 -0.000000 -0.000000 -0.000000 -15.169657 -13.725913 19.149587 7.212055 -3.067049 0.687392 0.000000 0.000000 0.000000 7.014217 -3.446734 1.540756 2.911841 -10.123130 -1.013498 7.270664 -3.226984 1.901073 1.378221 -8.180099 1.184993 -53.658823 -42.754706 29.329341 -0.250561 -19.716180 0.172545 7.068808 -3.464550 1.281515 9.388563 -9.286508 -1.643788 24.933192 -4.423858 -20.436411 -0.286931 13.424552 -0.108442 -0.000000 -0.000000 -0.000000 1.229765 13.584875 -18.507001 -3.642140 8.522469 34.410399 0.000000 -0.000000 -0.000000 -18.855233 -3.272691 -26.185624 -6.157132 -6.171660 52.084525 
0.245167 0.255408 -3.772904 166.476258 -77.343409 -171.484355 -0.000000 -0.000000 -0.000000 -14.478379 -9.335476 20.094566 6.541266 -2.416848 0.053620 0.000000 0.000000 0.000000 6.086487 -2.813207 0.949321 3.848346 -10.446452 -1.679117 6.188415 -2.565510 1.639745 0.753266 -8.231357 1.193525 -52.682129 -39.662087 25.128497 -0.248334 -20.800999 0.128973 5.990607 -2.594249 0.443627 7.902909 -6.418860 -1.214936 32.288635 -5.567542 -24.759520 -0.258384 15.983690 -0.039345 -0.000000 -0.000000 -0.000000 0.010394 13.543878 -17.128209 -3.302386 9.281746 31.668567 0.000000 -0.000000 0.000000 -20.502789 -5.029696 -32.879560 -2.807361 -3.899447 67.413511 
0.655714 0.550346 -4.821001 165.980860 -72.136113 -170.813751 -0.000000 -0.000000 -0.000000 -12.470994 -4.214484 19.471650 4.237169 -1.422250 -0.328966 0.000000 0.000000 0.000000 4.043212 -1.634480 0.115295 2.774582 -10.638412 -2.936193 3.952423 -1.412150 0.936928 -0.211780 -7.491435 1.077308 -51.332971 -34.546296 20.851814 -0.206440 -20.687932 0.087454 3.931313 -1.388805 -0.340638 5.079445 -1.564037 -0.288733 43.363404 -7.046037 -28.620714 -0.225197 21.964517 -0.047157 -0.000000 -0.000000 -0.000000 -0.867898 12.514638 -15.937913 -3.656140 9.289909 29.551548 0.000000 -0.000000 0.000000 -21.426242 -6.613073 -37.183896 -1.693633 -2.802226 75.797737 
1.196952 0.859751 -5.861279 166.955490 -65.686968 -172.052195 -0.000000 -0.000000 -0.000000 -9.700666 1.184416 16.537229 1.045863 -0.631150 -0.511971 0.000000 0.000000 0.000000 1.326319 -0.666191 -0.220222 0.564113 -11.077466 -3.212079 1.107941 -0.628918 0.225955 -0.933719 -6.330364 0.904062 -50.512227 -29.830577 17.980609 -0.166820 -19.310631 0.139422 1.280225 -0.585899 -0.945754 0.971991 3.055658 0.329028 49.692464 -10.910000 -28.550209 -0.234132 28.525848 -0.043651 -0.000000 -0.000000 -0.000000 -1.485301 9.732773 -14.581860 -4.377752 9.843131 27.325812 0.000000 -0.000000 0.000000 -21.839954 -5.211546 -40.427577 -4.782110 -1.680961 77.691200 
1.813123 1.219348 -6.847267 167.158459 -62.239913 -173.113110 -0.000000 -0.000000 -0.000000 -8.158740 3.916406 13.636742 -1.199938 -0.222063 -0.676604 0.000000 0.000000 0.000000 -1.084515 -0.390793 -0.430658 -1.573834 -11.669025 -1.447162 -1.468289 -0.304621 -0.379709 -0.945644 -5.220817 0.716380 -50.370078 -28.452751 16.000057 -0.128323 -15.423524 0.211564 -1.327846 -0.188075 -1.271051 -2.632028 4.566557 0.341337 51.273476 -16.459545 -26.172554 -0.194002 31.975384 -0.078408 -0.000000 -0.000000 -0.000000 -1.680006 6.394091 -12.729051 -4.932224 10.618953 24.103133 0.000000 -0.000000 0.000000 -21.340680 -3.286145 -43.661079 -9.802256 -1.425538 71.697150 
2.446049 1.583390 -7.807510 167.795275 -59.666294 -174.581309 -0.000000 0.000000 -0.000000 -7.620116 3.123148 10.106843 -2.306938 -0.100766 -0.738309 0.000000 0.000000 0.000000 -2.239222 -0.335003 -0.474324 -2.860786 -11.848314 0.448207 -2.623918 -0.232733 -0.631232 -0.097076 -4.656192 0.613055 -50.197023 -29.294475 14.573073 -0.091966 -9.976493 0.242564 -2.322430 -0.122305 -1.446986 -8.067613 4.926706 -0.098478 44.562504 -22.397228 -22.192584 -0.205820 32.264088 -0.105514 -0.000000 -0.000000 -0.000000 -1.523928 3.563114 -10.693684 -5.012571 11.201967 20.693672 0.000000 -0.000000 0.000000 -20.737188 -2.043478 -45.705879 -8.382810 -0.444743 61.793539 
